<svg width="40" height="40" viewBox="0 0 40 40" fill="none" xmlns="http://www.w3.org/2000/svg">
<path d="M4 4C4 1.79086 5.79086 0 8 0H24L36 12V36C36 38.2091 34.2091 40 32 40H8C5.79086 40 4 38.2091 4 36V4Z" fill="#888888"/>
<path opacity="0.3" d="M24 0L36 12H28C25.7909 12 24 10.2091 24 8V0Z" fill="#F0F0F0"/>
<path d="M8.16795 32V25.61H9.53595V28.211H11.957V25.61H13.325V32H11.957V29.363H9.53595V32H8.16795ZM15.7404 32V26.762H13.8324V25.61H19.0344V26.762H17.1174V32H15.7404ZM19.6289 32V25.61H21.4559L23.0849 30.263L24.7049 25.61H26.5319V32H25.1639V27.86L23.6609 31.982H22.4909L20.9969 27.86V32H19.6289ZM27.8642 32V25.61H29.2322V30.848H32.1752V32H27.8642Z" fill="white"/>
</svg>
